{"glyphs":{"\u0000":{"ha":903,"x_min":0,"x_max":0,"o":""},"\r":{"ha":479,"x_min":0,"x_max":0,"o":""}," ":{"ha":479,"x_min":0,"x_max":0,"o":""},".":{"ha":292,"x_min":0,"x_max":0,"o":"m 111 222 b 0 111 50 222 0 172 b 111 0 0 50 50 0 b 222 111 172 0 222 50 b 111 222 222 172 172 222 z "},"a":{"ha":960,"x_min":0,"x_max":0,"o":"m 238 713 b 116 631 192 693 151 666 b 31 509 80 597 52 556 b 0 359 10 463 0 413 b 30 217 0 310 10 262 b 113 96 51 172 78 131 b 234 12 147 60 188 32 b 266 1 245 8 256 4 b 268 724 210 108 211 615 b 238 713 258 720 248 717 z m 614 725 l 614 605 l 614 0 l 864 0 l 864 647 l 890 651 l 890 659 b 614 725 762 698 614 725 z m 604 144 l 604 144 l 604 144 l 604 144 z "},"b":{"ha":913,"x_min":0,"x_max":0,"o":"m 813 507 b 730 629 793 553 765 593 b 609 712 696 664 655 692 b 577 724 598 716 587 720 b 575 1 633 616 632 109 b 605 11 585 4 595 7 b 728 93 651 31 693 58 b 812 215 763 127 791 168 b 843 365 833 261 843 311 b 813 507 843 415 833 462 z m 0 1141 l 25 1136 l 25 0 l 226 0 l 226 1095 l 226 1215 b 0 1149 226 1215 128 1189 l 0 1141 z "},"c":{"ha":733,"x_min":0,"x_max":0,"o":"m 238 712 b 115 631 192 693 150 665 b 31 509 80 596 52 555 b 0 359 10 463 0 412 b 30 216 0 309 10 261 b 113 95 51 171 78 130 b 234 12 147 60 188 32 b 266 0 245 7 256 4 b 268 723 210 108 211 615 b 238 712 258 720 248 716 z m 552 261 b 441 150 491 261 441 211 b 552 39 441 89 491 39 b 663 150 614 39 663 89 b 552 261 663 211 614 261 z "},"d":{"ha":890,"x_min":0,"x_max":0,"o":"m 238 713 b 115 631 192 693 150 666 b 31 509 80 597 52 556 b 0 359 10 463 0 413 b 30 217 0 310 10 262 b 113 96 51 172 78 131 b 235 12 147 60 188 32 b 266 1 245 8 256 4 b 268 724 210 108 211 615 b 238 713 258 720 248 717 z m 594 1215 l 594 1095 l 594 0 l 795 0 l 795 1136 l 820 1141 l 820 1149 b 594 1215 692 1189 594 1215 z "},"e":{"ha":811,"x_min":0,"x_max":0,"o":"m 238 712 b 116 631 192 693 151 665 b 31 509 80 596 52 555 b 0 359 10 463 0 412 b 30 216 0 309 10 261 b 113 95 51 171 78 130 b 234 12 147 60 188 32 b 266 0 245 7 256 4 b 268 723 210 108 211 615 b 238 712 258 720 248 716 z m 718 507 b 641 631 696 563 673 599 l 641 631 b 519 713 606 666 565 694 b 480 727 506 718 493 723 b 523 634 504 698 518 667 b 529 598 525 622 527 610 b 541 486 535 565 541 528 l 541 351 b 541 350 541 351 541 351 l 742 350 l 742 361 b 718 507 742 424 735 467 z "},"f":{"ha":567,"x_min":0,"x_max":0,"o":"m 446 1155 b 335 1044 385 1155 335 1106 b 446 933 335 983 385 933 b 557 1044 507 933 557 983 b 446 1155 557 1106 507 1155 z m 201 1217 b 201 1224 201 1220 201 1222 b 0 941 115 1224 0 1103 l 0 0 l 201 0 l 201 668 l 226 673 l 226 682 b 201 690 217 685 209 687 l 201 1217 z "},"g":{"ha":836,"x_min":0,"x_max":0,"o":"m 530 499 b 530 -8 530 362 530 -8 b 731 316 649 51 731 174 l 731 636 l 756 641 l 756 649 b 454 715 628 688 454 715 b 530 499 454 715 530 664 z m 121 87 b 243 4 156 52 197 24 b 275 -8 253 -1 264 -5 b 276 715 219 100 219 606 b 247 704 266 712 256 708 b 124 623 200 685 159 657 b 39 501 89 588 60 547 b 8 351 19 455 8 404 b 39 208 8 301 18 253 b 121 87 59 163 87 122 z m 639 -485 b 512 -434 601 -464 558 -446 b 376 -394 464 -420 419 -407 b 260 -352 332 -381 293 -367 b 184 -286 222 -335 196 -313 b 180 -273 182 -281 181 -277 b 267 -304 207 -285 236 -295 b 424 -350 320 -320 372 -335 b 576 -405 477 -366 528 -384 b 700 -486 626 -426 667 -453 b 738 -544 717 -505 729 -523 b 749 -582 743 -556 747 -568 b 766 -468 760 -545 766 -507 b 723 -324 766 -410 752 -362 b 610 -227 694 -285 656 -253 b 454 -164 563 -201 511 -180 b 287 -115 396 -147 340 -131 b 144 -63 234 -99 186 -82 b 51 18 98 -43 67 -16 b 43 49 46 29 44 40 b 24 25 36 42 30 34 b 0 -71 8 1 0 -32 b 34 -177 0 -115 11 -149 b 129 -251 59 -206 91 -231 b 170 -269 142 -257 156 -263 b 162 -280 168 -273 165 -276 b 142 -358 149 -300 142 -326 b 170 -444 142 -394 151 -422 b 248 -504 190 -468 216 -488 b 360 -548 281 -521 318 -536 b 488 -585 403 -560 445 -573 b 598 -624 526 -597 563 -610 b 538 -723 562 -643 538 -680 b 649 -834 538 -784 587 -834 b 750 -768 694 -834 733 -807 b 752 -774 751 -770 752 -772 b 766 -681 761 -744 766 -713 b 731 -564 766 -634 754 -595 b 639 -485 707 -533 676 -506 z "},"h":{"ha":832,"x_min":0,"x_max":0,"o":"m 500 724 b 543 584 500 724 543 674 b 543 121 543 517 543 255 b 543 42 543 73 543 42 l 543 1 l 762 1 l 762 365 b 500 724 762 573 655 676 z m 0 1095 l 0 0 l 251 0 l 251 1137 l 276 1141 l 276 1149 b 0 1215 148 1189 0 1215 l 0 1095 z "},"i":{"ha":346,"x_min":0,"x_max":0,"o":"m 0 678 l 0 670 l 25 666 l 25 0 l 276 0 l 276 624 l 276 744 b 0 678 276 744 128 717 z m 138 845 b 215 877 168 845 193 855 b 247 953 236 898 247 923 b 215 1030 247 983 236 1009 b 138 1062 193 1051 168 1062 b 61 1030 108 1062 83 1051 b 30 953 40 1009 30 983 b 61 877 30 923 40 898 b 138 845 83 855 108 845 z "},"j":{"ha":540,"x_min":0,"x_max":0,"o":"m 111 222 b 0 111 50 222 0 173 b 111 0 0 50 50 0 b 222 111 173 0 222 50 b 111 222 222 173 173 222 z m 241 1179 l 241 1171 l 267 1166 l 267 528 l 267 528 b 267 140 267 344 267 177 b 228 0 267 50 228 0 b 472 358 372 48 472 150 l 472 528 l 472 1123 l 472 1124 l 472 1246 b 241 1179 472 1246 372 1219 z "},"k":{"ha":872,"x_min":0,"x_max":0,"o":"m 520 551 l 626 752 l 609 752 l 512 568 l 414 384 l 423 367 l 607 4 b 609 0 608 3 608 1 l 803 0 l 520 551 z m 0 1141 l 25 1137 l 25 0 l 276 0 l 276 1095 l 276 1215 b 0 1149 276 1215 128 1189 l 0 1141 z "},"l":{"ha":346,"x_min":0,"x_max":0,"o":"m 276 1149 b 0 1215 148 1189 0 1215 l 0 1095 l 0 0 l 251 0 l 251 1137 l 276 1141 l 276 1149 z "},"m":{"ha":1329,"x_min":0,"x_max":0,"o":"m 919 724 b 1016 541 919 724 1016 676 b 1016 121 1016 476 1016 245 b 1016 42 1016 74 1016 42 l 1016 1 l 1260 1 l 1260 365 b 919 724 1260 573 1120 695 z m 476 724 b 523 584 476 724 523 674 b 523 121 523 517 523 255 b 523 42 523 73 523 42 l 523 1 l 767 1 l 767 365 b 476 724 767 573 648 676 z m 0 631 l 25 626 l 25 0 l 226 0 l 226 585 l 226 705 b 0 639 226 705 128 678 l 0 631 z "},"n":{"ha":846,"x_min":0,"x_max":0,"o":"m 0 631 l 25 626 l 25 0 l 226 0 l 226 585 l 226 705 b 0 639 226 705 128 678 l 0 631 z m 484 724 b 532 584 484 724 532 674 b 532 121 532 517 532 255 b 532 42 532 73 532 42 l 532 1 l 776 1 l 776 365 b 484 724 776 573 657 676 z "},"o":{"ha":818,"x_min":0,"x_max":0,"o":"m 238 712 b 115 631 192 693 150 665 b 31 509 80 596 52 555 b 0 359 10 463 0 412 b 30 216 0 309 10 261 b 113 95 51 171 78 130 b 235 12 147 60 188 32 b 266 0 245 7 256 4 b 268 723 210 108 211 615 b 238 712 258 720 248 716 z m 718 507 b 635 628 698 552 670 593 b 514 711 601 663 560 691 b 482 723 503 716 493 720 b 480 0 538 615 538 109 b 510 11 490 3 500 7 b 633 92 557 30 598 58 b 717 214 668 127 696 168 b 748 364 738 260 748 311 b 718 507 748 414 738 462 z "},"p":{"ha":907,"x_min":0,"x_max":0,"o":"m 808 500 b 725 621 788 545 760 586 b 604 704 691 656 650 684 b 572 716 593 709 582 712 b 570 -7 628 608 627 101 b 600 4 580 -4 590 0 b 723 85 646 23 688 51 b 807 207 758 120 786 161 b 838 357 828 253 838 304 b 808 500 838 407 828 455 z m 0 634 l 25 629 l 25 -557 l 226 -557 l 226 588 l 226 708 b 0 642 226 708 128 682 l 0 634 z "},"q":{"ha":907,"x_min":0,"x_max":0,"o":"m 238 744 b 115 658 192 723 151 694 b 31 529 80 621 52 578 b 0 370 10 480 0 426 b 30 219 0 317 10 266 b 113 90 51 171 78 128 b 234 2 147 53 188 23 b 266 -10 245 -3 256 -7 b 268 756 210 104 211 641 b 238 744 258 752 248 749 z m 612 748 l 612 628 l 612 -518 l 813 -518 l 813 669 l 838 674 l 838 682 b 612 748 710 721 612 748 z "},"r":{"ha":721,"x_min":0,"x_max":0,"o":"m 0 649 l 25 645 l 25 0 l 276 0 l 276 603 l 276 723 b 0 657 276 723 128 697 l 0 649 z m 540 733 b 429 622 479 733 429 684 b 540 511 429 561 479 511 b 651 622 601 511 651 561 b 540 733 651 684 601 733 z "},"s":{"ha":560,"x_min":0,"x_max":0,"o":"m 245 597 b 309 661 281 597 309 626 b 245 725 309 696 281 725 b 182 661 210 725 182 696 b 245 597 182 626 210 597 z m 134 222 b 23 111 73 222 23 172 b 134 0 23 50 73 0 b 245 111 196 0 245 50 b 134 222 245 172 196 222 z m 461 330 b 381 410 441 364 414 391 l 102 560 b 51 646 69 577 51 609 b 17 591 37 630 26 611 b 0 505 6 564 0 535 b 30 394 0 464 10 428 b 110 314 50 361 77 334 l 388 164 b 440 78 422 148 440 115 b 474 134 454 95 465 113 b 491 220 485 160 491 190 b 461 330 491 261 481 297 z "},"t":{"ha":608,"x_min":0,"x_max":0,"o":"m 427 222 b 316 111 366 222 316 172 b 427 0 316 50 366 0 b 538 111 489 0 538 50 b 427 222 538 172 489 222 z m 226 1094 l 226 1214 b 0 1148 226 1214 128 1188 l 0 1140 l 25 1135 l 25 324 b 226 0 25 182 107 59 l 226 648 l 226 666 l 252 671 l 252 681 b 226 689 243 684 234 686 l 226 1094 z "},"u":{"ha":843,"x_min":0,"x_max":0,"o":"m 498 657 l 498 649 l 523 645 l 523 0 l 774 0 l 774 603 l 774 723 b 498 657 774 723 626 697 z m 0 615 l 25 610 l 25 325 b 226 1 25 183 107 61 l 226 569 l 226 649 l 226 689 b 0 623 226 689 128 663 l 0 615 z "},"v":{"ha":793,"x_min":0,"x_max":0,"o":"m 707 733 l 453 254 l 446 268 l 244 706 b 240 733 241 712 239 723 l 0 733 l 326 13 l 319 0 l 336 0 l 724 733 l 707 733 z "},"w":{"ha":1238,"x_min":0,"x_max":0,"o":"m 1151 733 l 897 253 l 688 709 b 684 733 686 714 684 723 l 444 733 l 571 447 l 571 447 l 768 10 l 763 0 l 780 0 l 1168 733 l 1151 733 z m 242 733 l 0 733 l 330 4 l 448 264 l 246 707 b 242 733 243 713 241 723 z "},"x":{"ha":644,"x_min":0,"x_max":0,"o":"m 575 0 l 355 484 l 497 752 l 480 752 l 347 501 l 244 729 b 240 752 241 734 240 743 l 0 752 l 220 260 l 83 1 l 100 1 l 228 243 l 337 0 l 575 0 z "},"y":{"ha":836,"x_min":0,"x_max":0,"o":"m 639 -480 b 512 -428 601 -458 558 -441 b 376 -388 465 -414 419 -401 b 260 -346 333 -375 293 -361 b 184 -280 222 -330 196 -308 b 180 -268 182 -276 181 -272 b 267 -299 207 -279 236 -290 b 424 -345 320 -314 372 -329 b 576 -399 477 -360 528 -378 b 700 -481 626 -420 668 -448 b 738 -538 717 -499 729 -518 b 749 -576 743 -550 747 -563 b 766 -462 760 -540 766 -501 b 724 -319 766 -404 752 -356 b 610 -222 694 -280 656 -247 b 454 -158 563 -195 511 -174 b 287 -109 396 -142 340 -125 b 144 -58 234 -93 186 -76 b 51 23 98 -38 67 -10 b 43 55 46 35 44 45 b 24 30 36 47 30 39 b 0 -65 8 6 0 -26 b 34 -171 0 -109 11 -144 b 129 -245 59 -200 91 -225 b 170 -264 142 -252 156 -258 b 162 -274 168 -267 165 -270 b 142 -352 149 -294 142 -320 b 170 -439 142 -388 151 -416 b 248 -499 190 -462 216 -483 b 360 -542 281 -516 318 -531 b 488 -580 403 -555 445 -567 b 598 -619 526 -591 563 -604 b 538 -717 562 -637 538 -674 b 649 -828 538 -779 587 -828 b 737 -780 672 -828 710 -817 b 766 -675 762 -746 766 -703 b 731 -559 766 -628 754 -589 b 639 -480 707 -527 676 -500 z m 477 487 l 477 -2 b 678 322 596 58 678 180 l 678 487 l 678 629 l 678 646 l 678 749 b 452 683 678 749 580 723 l 452 675 l 477 670 l 477 487 z m 54 322 b 255 -2 54 180 136 58 l 255 629 l 255 646 l 255 749 b 29 683 255 749 157 723 l 29 675 l 54 670 l 54 322 z "},"z":{"ha":653,"x_min":0,"x_max":0,"o":"m 252 19 l 584 752 l 431 752 l 333 752 l 100 752 l 100 738 l 334 738 b 332 718 334 731 334 724 l 0 0 l 152 0 l 248 0 l 483 0 l 483 14 l 251 14 b 252 19 252 15 252 17 z "}," ":{"ha":479,"x_min":0,"x_max":0,"o":""}}}
